<mxfile host="app.diagrams.net" agent="Mozilla/5.0 (Windows NT 10.0; Win64; x64) AppleWebKit/537.36 (KHTML, like Gecko) Chrome/133.0.0.0 Safari/537.36" version="26.0.10">
  <diagram name="Page-1" id="ItNDwaIW9Iqw4yhohN9x">
    <mxGraphModel dx="1143" dy="632" grid="1" gridSize="10" guides="1" tooltips="1" connect="1" arrows="1" fold="1" page="1" pageScale="1" pageWidth="1169" pageHeight="827" math="0" shadow="0">
      <root>
        <mxCell id="0" />
        <mxCell id="1" parent="0" />
        <mxCell id="7UJeepGuIPIi78HgQo_c-58" style="edgeStyle=none;rounded=0;orthogonalLoop=1;jettySize=auto;html=1;entryX=0.5;entryY=0;entryDx=0;entryDy=0;endArrow=none;startFill=0;exitX=1;exitY=1;exitDx=0;exitDy=0;exitPerimeter=0;" edge="1" parent="1" source="7UJeepGuIPIi78HgQo_c-1" target="7UJeepGuIPIi78HgQo_c-11">
          <mxGeometry relative="1" as="geometry">
            <mxPoint x="66" y="430" as="sourcePoint" />
          </mxGeometry>
        </mxCell>
        <mxCell id="7UJeepGuIPIi78HgQo_c-59" style="edgeStyle=none;rounded=0;orthogonalLoop=1;jettySize=auto;html=1;exitX=0.5;exitY=0.5;exitDx=0;exitDy=0;exitPerimeter=0;entryX=0;entryY=0.5;entryDx=0;entryDy=0;endArrow=none;startFill=0;" edge="1" parent="1" source="7UJeepGuIPIi78HgQo_c-1" target="7UJeepGuIPIi78HgQo_c-2">
          <mxGeometry relative="1" as="geometry" />
        </mxCell>
        <mxCell id="7UJeepGuIPIi78HgQo_c-1" value="" style="shape=umlActor;verticalLabelPosition=bottom;verticalAlign=top;html=1;outlineConnect=0;" vertex="1" parent="1">
          <mxGeometry x="30" y="375" width="30" height="60" as="geometry" />
        </mxCell>
        <mxCell id="7UJeepGuIPIi78HgQo_c-60" style="edgeStyle=none;rounded=0;orthogonalLoop=1;jettySize=auto;html=1;exitX=0;exitY=0.5;exitDx=0;exitDy=0;entryX=1;entryY=0.5;entryDx=0;entryDy=0;dashed=1;" edge="1" parent="1" source="7UJeepGuIPIi78HgQo_c-8" target="7UJeepGuIPIi78HgQo_c-2">
          <mxGeometry relative="1" as="geometry" />
        </mxCell>
        <mxCell id="7UJeepGuIPIi78HgQo_c-61" style="edgeStyle=none;rounded=0;orthogonalLoop=1;jettySize=auto;html=1;exitX=0;exitY=0.5;exitDx=0;exitDy=0;entryX=1;entryY=0;entryDx=0;entryDy=0;dashed=1;" edge="1" parent="1" source="7UJeepGuIPIi78HgQo_c-7" target="7UJeepGuIPIi78HgQo_c-2">
          <mxGeometry relative="1" as="geometry" />
        </mxCell>
        <mxCell id="7UJeepGuIPIi78HgQo_c-62" style="edgeStyle=none;rounded=0;orthogonalLoop=1;jettySize=auto;html=1;exitX=0;exitY=0.5;exitDx=0;exitDy=0;entryX=1;entryY=1;entryDx=0;entryDy=0;dashed=1;" edge="1" parent="1" source="7UJeepGuIPIi78HgQo_c-9" target="7UJeepGuIPIi78HgQo_c-2">
          <mxGeometry relative="1" as="geometry" />
        </mxCell>
        <mxCell id="7UJeepGuIPIi78HgQo_c-2" value="Choose Game" style="ellipse;whiteSpace=wrap;html=1;" vertex="1" parent="1">
          <mxGeometry x="110" y="380" width="80" height="50" as="geometry" />
        </mxCell>
        <mxCell id="7UJeepGuIPIi78HgQo_c-48" style="edgeStyle=none;rounded=0;orthogonalLoop=1;jettySize=auto;html=1;exitX=0.5;exitY=0;exitDx=0;exitDy=0;entryX=1;entryY=1;entryDx=0;entryDy=0;dashed=1;" edge="1" parent="1" source="7UJeepGuIPIi78HgQo_c-12" target="7UJeepGuIPIi78HgQo_c-7">
          <mxGeometry relative="1" as="geometry" />
        </mxCell>
        <mxCell id="7UJeepGuIPIi78HgQo_c-49" style="edgeStyle=none;rounded=0;orthogonalLoop=1;jettySize=auto;html=1;exitX=0;exitY=0.5;exitDx=0;exitDy=0;entryX=1;entryY=0.5;entryDx=0;entryDy=0;dashed=1;" edge="1" parent="1" source="7UJeepGuIPIi78HgQo_c-10" target="7UJeepGuIPIi78HgQo_c-7">
          <mxGeometry relative="1" as="geometry" />
        </mxCell>
        <mxCell id="7UJeepGuIPIi78HgQo_c-7" value="Tic Tac Toe" style="ellipse;whiteSpace=wrap;html=1;" vertex="1" parent="1">
          <mxGeometry x="240" y="280" width="80" height="50" as="geometry" />
        </mxCell>
        <mxCell id="7UJeepGuIPIi78HgQo_c-47" style="edgeStyle=none;rounded=0;orthogonalLoop=1;jettySize=auto;html=1;exitX=0;exitY=0;exitDx=0;exitDy=0;entryX=1;entryY=1;entryDx=0;entryDy=0;dashed=1;" edge="1" parent="1" source="7UJeepGuIPIi78HgQo_c-12" target="7UJeepGuIPIi78HgQo_c-8">
          <mxGeometry relative="1" as="geometry">
            <mxPoint x="420" y="480" as="sourcePoint" />
          </mxGeometry>
        </mxCell>
        <mxCell id="7UJeepGuIPIi78HgQo_c-50" style="edgeStyle=none;rounded=0;orthogonalLoop=1;jettySize=auto;html=1;exitX=0;exitY=1;exitDx=0;exitDy=0;dashed=1;entryX=1;entryY=0;entryDx=0;entryDy=0;" edge="1" parent="1" source="7UJeepGuIPIi78HgQo_c-10" target="7UJeepGuIPIi78HgQo_c-8">
          <mxGeometry relative="1" as="geometry">
            <mxPoint x="320" y="405" as="targetPoint" />
          </mxGeometry>
        </mxCell>
        <mxCell id="7UJeepGuIPIi78HgQo_c-8" value="Connect 4" style="ellipse;whiteSpace=wrap;html=1;" vertex="1" parent="1">
          <mxGeometry x="240" y="380" width="80" height="50" as="geometry" />
        </mxCell>
        <mxCell id="7UJeepGuIPIi78HgQo_c-46" style="edgeStyle=none;rounded=0;orthogonalLoop=1;jettySize=auto;html=1;exitX=0;exitY=0.5;exitDx=0;exitDy=0;entryX=1;entryY=0.5;entryDx=0;entryDy=0;dashed=1;labelBackgroundColor=default;" edge="1" parent="1" source="7UJeepGuIPIi78HgQo_c-12" target="7UJeepGuIPIi78HgQo_c-9">
          <mxGeometry relative="1" as="geometry" />
        </mxCell>
        <mxCell id="7UJeepGuIPIi78HgQo_c-51" style="edgeStyle=none;rounded=0;orthogonalLoop=1;jettySize=auto;html=1;exitX=0.5;exitY=1;exitDx=0;exitDy=0;entryX=1;entryY=0;entryDx=0;entryDy=0;dashed=1;" edge="1" parent="1" source="7UJeepGuIPIi78HgQo_c-10" target="7UJeepGuIPIi78HgQo_c-9">
          <mxGeometry relative="1" as="geometry" />
        </mxCell>
        <mxCell id="7UJeepGuIPIi78HgQo_c-9" value="Checkers" style="ellipse;whiteSpace=wrap;html=1;" vertex="1" parent="1">
          <mxGeometry x="240" y="478.5" width="80" height="50" as="geometry" />
        </mxCell>
        <mxCell id="7UJeepGuIPIi78HgQo_c-52" style="edgeStyle=none;rounded=0;orthogonalLoop=1;jettySize=auto;html=1;exitX=1;exitY=0.5;exitDx=0;exitDy=0;entryX=0;entryY=0.5;entryDx=0;entryDy=0;dashed=1;" edge="1" parent="1" source="7UJeepGuIPIi78HgQo_c-10" target="7UJeepGuIPIi78HgQo_c-20">
          <mxGeometry relative="1" as="geometry" />
        </mxCell>
        <mxCell id="7UJeepGuIPIi78HgQo_c-53" style="edgeStyle=none;rounded=0;orthogonalLoop=1;jettySize=auto;html=1;exitX=0.5;exitY=1;exitDx=0;exitDy=0;entryX=0.5;entryY=0;entryDx=0;entryDy=0;dashed=1;" edge="1" parent="1" source="7UJeepGuIPIi78HgQo_c-14" target="7UJeepGuIPIi78HgQo_c-10">
          <mxGeometry relative="1" as="geometry" />
        </mxCell>
        <mxCell id="7UJeepGuIPIi78HgQo_c-10" value="Enter Queue" style="ellipse;whiteSpace=wrap;html=1;" vertex="1" parent="1">
          <mxGeometry x="420" y="280" width="80" height="50" as="geometry" />
        </mxCell>
        <mxCell id="7UJeepGuIPIi78HgQo_c-12" value="View Game Stats" style="ellipse;whiteSpace=wrap;html=1;" vertex="1" parent="1">
          <mxGeometry x="420" y="479" width="80" height="50" as="geometry" />
        </mxCell>
        <mxCell id="7UJeepGuIPIi78HgQo_c-13" style="edgeStyle=orthogonalEdgeStyle;rounded=0;orthogonalLoop=1;jettySize=auto;html=1;exitX=0.5;exitY=1;exitDx=0;exitDy=0;" edge="1" parent="1" source="7UJeepGuIPIi78HgQo_c-10" target="7UJeepGuIPIi78HgQo_c-10">
          <mxGeometry relative="1" as="geometry" />
        </mxCell>
        <mxCell id="7UJeepGuIPIi78HgQo_c-54" style="edgeStyle=none;rounded=0;orthogonalLoop=1;jettySize=auto;html=1;exitX=1;exitY=1;exitDx=0;exitDy=0;entryX=0;entryY=0;entryDx=0;entryDy=0;dashed=1;" edge="1" parent="1" source="7UJeepGuIPIi78HgQo_c-17" target="7UJeepGuIPIi78HgQo_c-14">
          <mxGeometry relative="1" as="geometry">
            <mxPoint x="340" y="160" as="sourcePoint" />
          </mxGeometry>
        </mxCell>
        <mxCell id="7UJeepGuIPIi78HgQo_c-55" style="edgeStyle=none;rounded=0;orthogonalLoop=1;jettySize=auto;html=1;exitX=0;exitY=1;exitDx=0;exitDy=0;dashed=1;" edge="1" parent="1" source="7UJeepGuIPIi78HgQo_c-18" target="7UJeepGuIPIi78HgQo_c-14">
          <mxGeometry relative="1" as="geometry">
            <mxPoint x="570" y="160" as="sourcePoint" />
          </mxGeometry>
        </mxCell>
        <mxCell id="7UJeepGuIPIi78HgQo_c-14" value="Leave Queue" style="ellipse;whiteSpace=wrap;html=1;" vertex="1" parent="1">
          <mxGeometry x="420" y="180" width="80" height="50" as="geometry" />
        </mxCell>
        <mxCell id="7UJeepGuIPIi78HgQo_c-17" value="Back to game menu" style="ellipse;whiteSpace=wrap;html=1;" vertex="1" parent="1">
          <mxGeometry x="310" y="100" width="80" height="50" as="geometry" />
        </mxCell>
        <mxCell id="7UJeepGuIPIi78HgQo_c-18" value="Back to Queue" style="ellipse;whiteSpace=wrap;html=1;" vertex="1" parent="1">
          <mxGeometry x="521" y="100" width="80" height="50" as="geometry" />
        </mxCell>
        <mxCell id="7UJeepGuIPIi78HgQo_c-45" style="edgeStyle=none;rounded=0;orthogonalLoop=1;jettySize=auto;html=1;exitX=1;exitY=0.5;exitDx=0;exitDy=0;entryX=0.5;entryY=0;entryDx=0;entryDy=0;dashed=1;" edge="1" parent="1" source="7UJeepGuIPIi78HgQo_c-19" target="7UJeepGuIPIi78HgQo_c-25">
          <mxGeometry relative="1" as="geometry" />
        </mxCell>
        <mxCell id="7UJeepGuIPIi78HgQo_c-19" value="Leave" style="ellipse;whiteSpace=wrap;html=1;" vertex="1" parent="1">
          <mxGeometry x="675" y="190" width="80" height="50" as="geometry" />
        </mxCell>
        <mxCell id="7UJeepGuIPIi78HgQo_c-41" style="edgeStyle=none;rounded=0;orthogonalLoop=1;jettySize=auto;html=1;exitX=0;exitY=0.5;exitDx=0;exitDy=0;entryX=0.5;entryY=0;entryDx=0;entryDy=0;dashed=1;" edge="1" parent="1" source="7UJeepGuIPIi78HgQo_c-19" target="7UJeepGuIPIi78HgQo_c-20">
          <mxGeometry relative="1" as="geometry" />
        </mxCell>
        <mxCell id="7UJeepGuIPIi78HgQo_c-43" style="edgeStyle=none;rounded=0;orthogonalLoop=1;jettySize=auto;html=1;exitX=0;exitY=0.5;exitDx=0;exitDy=0;entryX=1;entryY=0.5;entryDx=0;entryDy=0;dashed=1;" edge="1" parent="1" source="7UJeepGuIPIi78HgQo_c-24" target="7UJeepGuIPIi78HgQo_c-20">
          <mxGeometry relative="1" as="geometry" />
        </mxCell>
        <mxCell id="7UJeepGuIPIi78HgQo_c-44" style="edgeStyle=none;rounded=0;orthogonalLoop=1;jettySize=auto;html=1;exitX=0;exitY=0.5;exitDx=0;exitDy=0;entryX=0.5;entryY=1;entryDx=0;entryDy=0;dashed=1;" edge="1" parent="1" target="7UJeepGuIPIi78HgQo_c-20">
          <mxGeometry relative="1" as="geometry">
            <mxPoint x="685" y="414" as="sourcePoint" />
          </mxGeometry>
        </mxCell>
        <mxCell id="7UJeepGuIPIi78HgQo_c-90" style="edgeStyle=none;rounded=0;orthogonalLoop=1;jettySize=auto;html=1;exitX=0;exitY=0.5;exitDx=0;exitDy=0;entryX=1;entryY=0;entryDx=0;entryDy=0;dashed=1;" edge="1" parent="1" source="7UJeepGuIPIi78HgQo_c-25" target="7UJeepGuIPIi78HgQo_c-20">
          <mxGeometry relative="1" as="geometry" />
        </mxCell>
        <mxCell id="7UJeepGuIPIi78HgQo_c-20" value="Enter Game" style="ellipse;whiteSpace=wrap;html=1;" vertex="1" parent="1">
          <mxGeometry x="585" y="280" width="80" height="50" as="geometry" />
        </mxCell>
        <mxCell id="7UJeepGuIPIi78HgQo_c-34" style="rounded=0;orthogonalLoop=1;jettySize=auto;html=1;exitX=1;exitY=0.5;exitDx=0;exitDy=0;entryX=0;entryY=0.5;entryDx=0;entryDy=0;dashed=1;" edge="1" parent="1" source="7UJeepGuIPIi78HgQo_c-21" target="7UJeepGuIPIi78HgQo_c-27">
          <mxGeometry relative="1" as="geometry">
            <mxPoint x="765" y="414" as="sourcePoint" />
          </mxGeometry>
        </mxCell>
        <mxCell id="7UJeepGuIPIi78HgQo_c-21" value="Win" style="ellipse;whiteSpace=wrap;html=1;" vertex="1" parent="1">
          <mxGeometry x="650" y="389" width="80" height="50" as="geometry" />
        </mxCell>
        <mxCell id="7UJeepGuIPIi78HgQo_c-33" style="rounded=0;orthogonalLoop=1;jettySize=auto;html=1;exitX=1;exitY=0.5;exitDx=0;exitDy=0;entryX=0;entryY=0;entryDx=0;entryDy=0;dashed=1;" edge="1" parent="1" source="7UJeepGuIPIi78HgQo_c-24" target="7UJeepGuIPIi78HgQo_c-27">
          <mxGeometry relative="1" as="geometry" />
        </mxCell>
        <mxCell id="7UJeepGuIPIi78HgQo_c-24" value="Tie" style="ellipse;whiteSpace=wrap;html=1;" vertex="1" parent="1">
          <mxGeometry x="735" y="310" width="80" height="50" as="geometry" />
        </mxCell>
        <mxCell id="7UJeepGuIPIi78HgQo_c-32" style="rounded=0;orthogonalLoop=1;jettySize=auto;html=1;exitX=1;exitY=1;exitDx=0;exitDy=0;entryX=0.5;entryY=0;entryDx=0;entryDy=0;dashed=1;" edge="1" parent="1" source="7UJeepGuIPIi78HgQo_c-25" target="7UJeepGuIPIi78HgQo_c-27">
          <mxGeometry relative="1" as="geometry" />
        </mxCell>
        <mxCell id="7UJeepGuIPIi78HgQo_c-25" value="Lose" style="ellipse;whiteSpace=wrap;html=1;" vertex="1" parent="1">
          <mxGeometry x="785" y="240" width="80" height="50" as="geometry" />
        </mxCell>
        <mxCell id="7UJeepGuIPIi78HgQo_c-40" style="edgeStyle=none;rounded=0;orthogonalLoop=1;jettySize=auto;html=1;exitX=1;exitY=0.5;exitDx=0;exitDy=0;entryX=0;entryY=0.5;entryDx=0;entryDy=0;dashed=1;" edge="1" parent="1" source="7UJeepGuIPIi78HgQo_c-27" target="7UJeepGuIPIi78HgQo_c-28">
          <mxGeometry relative="1" as="geometry" />
        </mxCell>
        <mxCell id="7UJeepGuIPIi78HgQo_c-27" value="Update Stats" style="ellipse;whiteSpace=wrap;html=1;" vertex="1" parent="1">
          <mxGeometry x="835" y="389" width="80" height="50" as="geometry" />
        </mxCell>
        <mxCell id="7UJeepGuIPIi78HgQo_c-28" value="View Post Game Stats" style="ellipse;whiteSpace=wrap;html=1;" vertex="1" parent="1">
          <mxGeometry x="980" y="389" width="80" height="50" as="geometry" />
        </mxCell>
        <mxCell id="7UJeepGuIPIi78HgQo_c-37" style="rounded=0;orthogonalLoop=1;jettySize=auto;html=1;exitX=0;exitY=0.3333333333333333;exitDx=0;exitDy=0;exitPerimeter=0;entryX=1;entryY=1;entryDx=0;entryDy=0;endArrow=none;startFill=0;" edge="1" parent="1" source="7UJeepGuIPIi78HgQo_c-36" target="7UJeepGuIPIi78HgQo_c-12">
          <mxGeometry relative="1" as="geometry" />
        </mxCell>
        <mxCell id="7UJeepGuIPIi78HgQo_c-38" style="edgeStyle=none;rounded=0;orthogonalLoop=1;jettySize=auto;html=1;exitX=0.5;exitY=0;exitDx=0;exitDy=0;exitPerimeter=0;entryX=1;entryY=1;entryDx=0;entryDy=0;endArrow=none;startFill=0;" edge="1" parent="1" source="7UJeepGuIPIi78HgQo_c-36" target="7UJeepGuIPIi78HgQo_c-10">
          <mxGeometry relative="1" as="geometry" />
        </mxCell>
        <mxCell id="7UJeepGuIPIi78HgQo_c-39" style="edgeStyle=none;rounded=0;orthogonalLoop=1;jettySize=auto;html=1;exitX=1;exitY=0.3333333333333333;exitDx=0;exitDy=0;exitPerimeter=0;entryX=0.5;entryY=1;entryDx=0;entryDy=0;endArrow=none;startFill=0;" edge="1" parent="1" source="7UJeepGuIPIi78HgQo_c-36" target="7UJeepGuIPIi78HgQo_c-27">
          <mxGeometry relative="1" as="geometry" />
        </mxCell>
        <mxCell id="7UJeepGuIPIi78HgQo_c-36" value="Database and Matchmaker" style="shape=umlActor;verticalLabelPosition=bottom;verticalAlign=top;html=1;outlineConnect=0;" vertex="1" parent="1">
          <mxGeometry x="601" y="610" width="30" height="60" as="geometry" />
        </mxCell>
        <mxCell id="7UJeepGuIPIi78HgQo_c-63" value="&lt;span style=&quot;color: rgb(0, 0, 0); font-family: Helvetica; font-size: 12px; font-style: normal; font-variant-ligatures: normal; font-variant-caps: normal; font-weight: 400; letter-spacing: normal; orphans: 2; text-align: center; text-indent: 0px; text-transform: none; widows: 2; word-spacing: 0px; -webkit-text-stroke-width: 0px; white-space: nowrap; background-color: rgb(251, 251, 251); text-decoration-thickness: initial; text-decoration-style: initial; text-decoration-color: initial; display: inline !important; float: none;&quot;&gt;Player&lt;/span&gt;" style="text;whiteSpace=wrap;html=1;" vertex="1" parent="1">
          <mxGeometry x="25" y="431" width="40" height="20" as="geometry" />
        </mxCell>
        <mxCell id="7UJeepGuIPIi78HgQo_c-69" value="&lt;span style=&quot;color: rgb(0, 0, 0); font-family: Helvetica; font-style: normal; font-variant-ligatures: normal; font-variant-caps: normal; font-weight: 400; letter-spacing: normal; orphans: 2; text-align: center; text-indent: 0px; text-transform: none; widows: 2; word-spacing: 0px; -webkit-text-stroke-width: 0px; white-space: nowrap; background-color: rgb(251, 251, 251); text-decoration-thickness: initial; text-decoration-style: initial; text-decoration-color: initial; float: none; display: inline !important;&quot;&gt;&lt;font&gt;&amp;lt;&amp;lt;extend&lt;/font&gt;&lt;/span&gt;&lt;span style=&quot;background-color: light-dark(rgb(251, 251, 251), rgb(21, 21, 21)); color: light-dark(rgb(0, 0, 0), rgb(237, 237, 237)); text-align: center; text-wrap-mode: nowrap;&quot;&gt;&amp;gt;&amp;gt;&lt;/span&gt;" style="text;whiteSpace=wrap;html=1;rotation=-55;fontSize=9;" vertex="1" parent="1">
          <mxGeometry x="160" y="330" width="70" height="20" as="geometry" />
        </mxCell>
        <mxCell id="7UJeepGuIPIi78HgQo_c-70" value="&lt;span style=&quot;color: rgb(0, 0, 0); font-family: Helvetica; font-style: normal; font-variant-ligatures: normal; font-variant-caps: normal; font-weight: 400; letter-spacing: normal; orphans: 2; text-align: center; text-indent: 0px; text-transform: none; widows: 2; word-spacing: 0px; -webkit-text-stroke-width: 0px; white-space: nowrap; text-decoration-thickness: initial; text-decoration-style: initial; text-decoration-color: initial; float: none; display: inline !important;&quot;&gt;&lt;font&gt;&amp;lt;&amp;lt;extend&lt;/font&gt;&lt;/span&gt;&lt;span style=&quot;color: light-dark(rgb(0, 0, 0), rgb(237, 237, 237)); text-align: center; text-wrap-mode: nowrap;&quot;&gt;&amp;gt;&amp;gt;&lt;/span&gt;" style="text;whiteSpace=wrap;html=1;rotation=0;labelBackgroundColor=none;fontSize=9;" vertex="1" parent="1">
          <mxGeometry x="190" y="404" width="70" height="20" as="geometry" />
        </mxCell>
        <mxCell id="7UJeepGuIPIi78HgQo_c-71" value="&lt;span style=&quot;color: rgb(0, 0, 0); font-family: Helvetica; font-style: normal; font-variant-ligatures: normal; font-variant-caps: normal; font-weight: 400; letter-spacing: normal; orphans: 2; text-align: center; text-indent: 0px; text-transform: none; widows: 2; word-spacing: 0px; -webkit-text-stroke-width: 0px; white-space: nowrap; text-decoration-thickness: initial; text-decoration-style: initial; text-decoration-color: initial; float: none; display: inline !important;&quot;&gt;&lt;font&gt;&amp;lt;&amp;lt;extend&lt;/font&gt;&lt;/span&gt;&lt;span style=&quot;color: light-dark(rgb(0, 0, 0), rgb(237, 237, 237)); text-align: center; text-wrap-mode: nowrap;&quot;&gt;&amp;gt;&amp;gt;&lt;/span&gt;" style="text;whiteSpace=wrap;html=1;rotation=55;labelBackgroundColor=none;fontSize=9;" vertex="1" parent="1">
          <mxGeometry x="170" y="458.5" width="70" height="20" as="geometry" />
        </mxCell>
        <mxCell id="7UJeepGuIPIi78HgQo_c-72" value="&lt;span style=&quot;color: rgb(0, 0, 0); font-family: Helvetica; font-style: normal; font-variant-ligatures: normal; font-variant-caps: normal; font-weight: 400; letter-spacing: normal; orphans: 2; text-align: center; text-indent: 0px; text-transform: none; widows: 2; word-spacing: 0px; -webkit-text-stroke-width: 0px; white-space: nowrap; text-decoration-thickness: initial; text-decoration-style: initial; text-decoration-color: initial; float: none; display: inline !important;&quot;&gt;&lt;font&gt;&amp;lt;&amp;lt;extend&lt;/font&gt;&lt;/span&gt;&lt;span style=&quot;color: light-dark(rgb(0, 0, 0), rgb(237, 237, 237)); text-align: center; text-wrap-mode: nowrap;&quot;&gt;&amp;gt;&amp;gt;&lt;/span&gt;" style="text;whiteSpace=wrap;html=1;rotation=0;labelBackgroundColor=none;fontSize=9;" vertex="1" parent="1">
          <mxGeometry x="340" y="500" width="70" height="4" as="geometry" />
        </mxCell>
        <mxCell id="7UJeepGuIPIi78HgQo_c-74" value="&lt;span style=&quot;color: rgb(0, 0, 0); font-family: Helvetica; font-style: normal; font-variant-ligatures: normal; font-variant-caps: normal; font-weight: 400; letter-spacing: normal; orphans: 2; text-align: center; text-indent: 0px; text-transform: none; widows: 2; word-spacing: 0px; -webkit-text-stroke-width: 0px; white-space: nowrap; text-decoration-thickness: initial; text-decoration-style: initial; text-decoration-color: initial; float: none; display: inline !important;&quot;&gt;&lt;font&gt;&amp;lt;&amp;lt;extend&lt;/font&gt;&lt;/span&gt;&lt;span style=&quot;color: light-dark(rgb(0, 0, 0), rgb(237, 237, 237)); text-align: center; text-wrap-mode: nowrap;&quot;&gt;&amp;gt;&amp;gt;&lt;/span&gt;" style="text;whiteSpace=wrap;html=1;rotation=0;labelBackgroundColor=none;fontSize=9;" vertex="1" parent="1">
          <mxGeometry x="340" y="280" width="70" height="4" as="geometry" />
        </mxCell>
        <mxCell id="7UJeepGuIPIi78HgQo_c-75" value="&lt;span style=&quot;color: rgb(0, 0, 0); font-family: Helvetica; font-style: normal; font-variant-ligatures: normal; font-variant-caps: normal; font-weight: 400; letter-spacing: normal; orphans: 2; text-align: center; text-indent: 0px; text-transform: none; widows: 2; word-spacing: 0px; -webkit-text-stroke-width: 0px; white-space: nowrap; text-decoration-thickness: initial; text-decoration-style: initial; text-decoration-color: initial; float: none; display: inline !important;&quot;&gt;&lt;font&gt;&amp;lt;&amp;lt;extend&lt;/font&gt;&lt;/span&gt;&lt;span style=&quot;color: light-dark(rgb(0, 0, 0), rgb(237, 237, 237)); text-align: center; text-wrap-mode: nowrap;&quot;&gt;&amp;gt;&amp;gt;&lt;/span&gt;" style="text;whiteSpace=wrap;html=1;rotation=45;labelBackgroundColor=none;fontSize=9;" vertex="1" parent="1">
          <mxGeometry x="420" y="439" width="70" height="4" as="geometry" />
        </mxCell>
        <mxCell id="7UJeepGuIPIi78HgQo_c-76" value="&lt;span style=&quot;color: rgb(0, 0, 0); font-family: Helvetica; font-style: normal; font-variant-ligatures: normal; font-variant-caps: normal; font-weight: 400; letter-spacing: normal; orphans: 2; text-align: center; text-indent: 0px; text-transform: none; widows: 2; word-spacing: 0px; -webkit-text-stroke-width: 0px; white-space: nowrap; text-decoration-thickness: initial; text-decoration-style: initial; text-decoration-color: initial; float: none; display: inline !important;&quot;&gt;&lt;font&gt;&amp;lt;&amp;lt;extend&lt;/font&gt;&lt;/span&gt;&lt;span style=&quot;color: light-dark(rgb(0, 0, 0), rgb(237, 237, 237)); text-align: center; text-wrap-mode: nowrap;&quot;&gt;&amp;gt;&amp;gt;&lt;/span&gt;" style="text;whiteSpace=wrap;html=1;rotation=-45;labelBackgroundColor=none;fontSize=9;" vertex="1" parent="1">
          <mxGeometry x="390" y="360" width="70" height="4" as="geometry" />
        </mxCell>
        <mxCell id="7UJeepGuIPIi78HgQo_c-77" value="&lt;span style=&quot;color: rgb(0, 0, 0); font-family: Helvetica; font-style: normal; font-variant-ligatures: normal; font-variant-caps: normal; font-weight: 400; letter-spacing: normal; orphans: 2; text-align: center; text-indent: 0px; text-transform: none; widows: 2; word-spacing: 0px; -webkit-text-stroke-width: 0px; white-space: nowrap; text-decoration-thickness: initial; text-decoration-style: initial; text-decoration-color: initial; float: none; display: inline !important;&quot;&gt;&lt;font&gt;&amp;lt;&amp;lt;extend&lt;/font&gt;&lt;/span&gt;&lt;span style=&quot;color: light-dark(rgb(0, 0, 0), rgb(237, 237, 237)); text-align: center; text-wrap-mode: nowrap;&quot;&gt;&amp;gt;&amp;gt;&lt;/span&gt;" style="text;whiteSpace=wrap;html=1;rotation=-30;labelBackgroundColor=none;fontSize=9;" vertex="1" parent="1">
          <mxGeometry x="340" y="326" width="70" height="4" as="geometry" />
        </mxCell>
        <mxCell id="7UJeepGuIPIi78HgQo_c-78" value="&lt;span style=&quot;color: rgb(0, 0, 0); font-family: Helvetica; font-style: normal; font-variant-ligatures: normal; font-variant-caps: normal; font-weight: 400; letter-spacing: normal; orphans: 2; text-align: center; text-indent: 0px; text-transform: none; widows: 2; word-spacing: 0px; -webkit-text-stroke-width: 0px; white-space: nowrap; text-decoration-thickness: initial; text-decoration-style: initial; text-decoration-color: initial; float: none; display: inline !important;&quot;&gt;&lt;font&gt;&amp;lt;&amp;lt;extend&lt;/font&gt;&lt;/span&gt;&lt;span style=&quot;color: light-dark(rgb(0, 0, 0), rgb(237, 237, 237)); text-align: center; text-wrap-mode: nowrap;&quot;&gt;&amp;gt;&amp;gt;&lt;/span&gt;" style="text;whiteSpace=wrap;html=1;rotation=25;labelBackgroundColor=none;fontSize=9;" vertex="1" parent="1">
          <mxGeometry x="350" y="458.5" width="70" height="4" as="geometry" />
        </mxCell>
        <mxCell id="7UJeepGuIPIi78HgQo_c-79" value="&lt;span style=&quot;color: rgb(0, 0, 0); font-family: Helvetica; font-style: normal; font-variant-ligatures: normal; font-variant-caps: normal; font-weight: 400; letter-spacing: normal; orphans: 2; text-align: center; text-indent: 0px; text-transform: none; widows: 2; word-spacing: 0px; -webkit-text-stroke-width: 0px; white-space: nowrap; background-color: rgb(251, 251, 251); text-decoration-thickness: initial; text-decoration-style: initial; text-decoration-color: initial; float: none; display: inline !important;&quot;&gt;&lt;font&gt;&amp;lt;&amp;lt;extend&lt;/font&gt;&lt;/span&gt;&lt;span style=&quot;background-color: light-dark(rgb(251, 251, 251), rgb(21, 21, 21)); color: light-dark(rgb(0, 0, 0), rgb(237, 237, 237)); text-align: center; text-wrap-mode: nowrap;&quot;&gt;&amp;gt;&amp;gt;&lt;/span&gt;" style="text;whiteSpace=wrap;html=1;fontSize=9;" vertex="1" parent="1">
          <mxGeometry x="430" y="240" width="70" height="20" as="geometry" />
        </mxCell>
        <mxCell id="7UJeepGuIPIi78HgQo_c-80" value="&lt;span style=&quot;color: rgb(0, 0, 0); font-family: Helvetica; font-style: normal; font-variant-ligatures: normal; font-variant-caps: normal; font-weight: 400; letter-spacing: normal; orphans: 2; text-indent: 0px; text-transform: none; widows: 2; word-spacing: 0px; -webkit-text-stroke-width: 0px; white-space: nowrap; background-color: rgb(251, 251, 251); text-decoration-thickness: initial; text-decoration-style: initial; text-decoration-color: initial; float: none; display: inline !important;&quot;&gt;&lt;font&gt;&amp;lt;&amp;lt;extend&amp;gt;&amp;gt;&lt;/font&gt;&lt;/span&gt;&lt;div&gt;&lt;div&gt;&lt;span style=&quot;color: rgb(0, 0, 0); font-family: Helvetica; font-style: normal; font-variant-ligatures: normal; font-variant-caps: normal; font-weight: 400; letter-spacing: normal; orphans: 2; text-indent: 0px; text-transform: none; widows: 2; word-spacing: 0px; -webkit-text-stroke-width: 0px; white-space: nowrap; background-color: rgb(251, 251, 251); text-decoration-thickness: initial; text-decoration-style: initial; text-decoration-color: initial; float: none; display: inline !important;&quot;&gt;&lt;font&gt;[Leave queue succeeds]&lt;/font&gt;&lt;/span&gt;&lt;/div&gt;&lt;/div&gt;" style="text;whiteSpace=wrap;html=1;align=center;fontSize=9;" vertex="1" parent="1">
          <mxGeometry x="330" y="160" width="70" height="20" as="geometry" />
        </mxCell>
        <mxCell id="7UJeepGuIPIi78HgQo_c-82" value="&lt;span style=&quot;color: rgb(0, 0, 0); font-family: Helvetica; font-style: normal; font-variant-ligatures: normal; font-variant-caps: normal; font-weight: 400; letter-spacing: normal; orphans: 2; text-indent: 0px; text-transform: none; widows: 2; word-spacing: 0px; -webkit-text-stroke-width: 0px; white-space: nowrap; background-color: rgb(251, 251, 251); text-decoration-thickness: initial; text-decoration-style: initial; text-decoration-color: initial; float: none; display: inline !important;&quot;&gt;&lt;font&gt;&amp;lt;&amp;lt;extend&amp;gt;&amp;gt;&lt;/font&gt;&lt;/span&gt;&lt;div&gt;&lt;div&gt;&lt;span style=&quot;color: rgb(0, 0, 0); font-family: Helvetica; font-style: normal; font-variant-ligatures: normal; font-variant-caps: normal; font-weight: 400; letter-spacing: normal; orphans: 2; text-indent: 0px; text-transform: none; widows: 2; word-spacing: 0px; -webkit-text-stroke-width: 0px; white-space: nowrap; background-color: rgb(251, 251, 251); text-decoration-thickness: initial; text-decoration-style: initial; text-decoration-color: initial; float: none; display: inline !important;&quot;&gt;&lt;font&gt;[Leave queue fails]&lt;/font&gt;&lt;/span&gt;&lt;/div&gt;&lt;/div&gt;" style="text;whiteSpace=wrap;html=1;align=center;fontSize=9;" vertex="1" parent="1">
          <mxGeometry x="514" y="160" width="70" height="20" as="geometry" />
        </mxCell>
        <mxCell id="7UJeepGuIPIi78HgQo_c-83" value="&lt;span style=&quot;color: rgb(0, 0, 0); font-family: Helvetica; font-style: normal; font-variant-ligatures: normal; font-variant-caps: normal; font-weight: 400; letter-spacing: normal; orphans: 2; text-align: center; text-indent: 0px; text-transform: none; widows: 2; word-spacing: 0px; -webkit-text-stroke-width: 0px; white-space: nowrap; background-color: rgb(251, 251, 251); text-decoration-thickness: initial; text-decoration-style: initial; text-decoration-color: initial; float: none; display: inline !important;&quot;&gt;&lt;font&gt;&amp;lt;&amp;lt;include&amp;gt;&amp;gt;&lt;/font&gt;&lt;/span&gt;" style="text;whiteSpace=wrap;html=1;rotation=15;fontSize=9;" vertex="1" parent="1">
          <mxGeometry x="765" y="205" width="70" height="20" as="geometry" />
        </mxCell>
        <mxCell id="7UJeepGuIPIi78HgQo_c-84" value="&lt;span style=&quot;color: rgb(0, 0, 0); font-family: Helvetica; font-style: normal; font-variant-ligatures: normal; font-variant-caps: normal; font-weight: 400; letter-spacing: normal; orphans: 2; text-align: center; text-indent: 0px; text-transform: none; widows: 2; word-spacing: 0px; -webkit-text-stroke-width: 0px; white-space: nowrap; text-decoration-thickness: initial; text-decoration-style: initial; text-decoration-color: initial; float: none; display: inline !important;&quot;&gt;&lt;font style=&quot;font-size: 10px;&quot;&gt;&amp;lt;&amp;lt;extend&amp;gt;&amp;gt;&lt;/font&gt;&lt;/span&gt;" style="text;whiteSpace=wrap;html=1;rotation=20;labelBackgroundColor=none;" vertex="1" parent="1">
          <mxGeometry x="680.4300000000001" y="303.14" width="69.14" height="15.15" as="geometry" />
        </mxCell>
        <mxCell id="7UJeepGuIPIi78HgQo_c-88" value="&lt;span style=&quot;color: rgb(0, 0, 0); font-family: Helvetica; font-style: normal; font-variant-ligatures: normal; font-variant-caps: normal; font-weight: 400; letter-spacing: normal; orphans: 2; text-align: center; text-indent: 0px; text-transform: none; widows: 2; word-spacing: 0px; -webkit-text-stroke-width: 0px; white-space: nowrap; text-decoration-thickness: initial; text-decoration-style: initial; text-decoration-color: initial; float: none; display: inline !important;&quot;&gt;&lt;font&gt;&amp;lt;&amp;lt;include&amp;gt;&amp;gt;&lt;/font&gt;&lt;/span&gt;" style="text;whiteSpace=wrap;html=1;rotation=0;labelBackgroundColor=none;fontSize=9;" vertex="1" parent="1">
          <mxGeometry x="515" y="306.71" width="70" height="8" as="geometry" />
        </mxCell>
        <mxCell id="7UJeepGuIPIi78HgQo_c-89" value="&lt;span style=&quot;color: rgb(0, 0, 0); font-family: Helvetica; font-style: normal; font-variant-ligatures: normal; font-variant-caps: normal; font-weight: 400; letter-spacing: normal; orphans: 2; text-align: center; text-indent: 0px; text-transform: none; widows: 2; word-spacing: 0px; -webkit-text-stroke-width: 0px; white-space: nowrap; text-decoration-thickness: initial; text-decoration-style: initial; text-decoration-color: initial; float: none; display: inline !important;&quot;&gt;&lt;font&gt;&amp;lt;&amp;lt;extend&amp;gt;&amp;gt;&lt;/font&gt;&lt;/span&gt;" style="text;whiteSpace=wrap;html=1;rotation=0;labelBackgroundColor=none;fontSize=9;" vertex="1" parent="1">
          <mxGeometry x="601" y="360" width="70" height="20" as="geometry" />
        </mxCell>
        <mxCell id="7UJeepGuIPIi78HgQo_c-94" style="edgeStyle=none;rounded=0;orthogonalLoop=1;jettySize=auto;html=1;exitX=0.25;exitY=1;exitDx=0;exitDy=0;" edge="1" parent="1" source="7UJeepGuIPIi78HgQo_c-84" target="7UJeepGuIPIi78HgQo_c-84">
          <mxGeometry relative="1" as="geometry" />
        </mxCell>
        <mxCell id="7UJeepGuIPIi78HgQo_c-95" value="&lt;span style=&quot;color: rgb(0, 0, 0); font-family: Helvetica; font-style: normal; font-variant-ligatures: normal; font-variant-caps: normal; font-weight: 400; letter-spacing: normal; orphans: 2; text-align: center; text-indent: 0px; text-transform: none; widows: 2; word-spacing: 0px; -webkit-text-stroke-width: 0px; white-space: nowrap; text-decoration-thickness: initial; text-decoration-style: initial; text-decoration-color: initial; float: none; display: inline !important;&quot;&gt;&lt;font&gt;&amp;lt;&amp;lt;extend&amp;gt;&amp;gt;&lt;/font&gt;&lt;/span&gt;" style="text;whiteSpace=wrap;html=1;rotation=-10;labelBackgroundColor=none;fontSize=9;" vertex="1" parent="1">
          <mxGeometry x="685" y="255" width="70" height="20" as="geometry" />
        </mxCell>
        <mxCell id="7UJeepGuIPIi78HgQo_c-96" value="&lt;span style=&quot;color: rgb(0, 0, 0); font-family: Helvetica; font-style: normal; font-variant-ligatures: normal; font-variant-caps: normal; font-weight: 400; letter-spacing: normal; orphans: 2; text-align: center; text-indent: 0px; text-transform: none; widows: 2; word-spacing: 0px; -webkit-text-stroke-width: 0px; white-space: nowrap; text-decoration-thickness: initial; text-decoration-style: initial; text-decoration-color: initial; float: none; display: inline !important;&quot;&gt;&lt;font&gt;&amp;lt;&amp;lt;extend&amp;gt;&amp;gt;&lt;/font&gt;&lt;/span&gt;" style="text;whiteSpace=wrap;html=1;rotation=0;labelBackgroundColor=none;fontSize=9;" vertex="1" parent="1">
          <mxGeometry x="595" y="230" width="70" height="20" as="geometry" />
        </mxCell>
        <mxCell id="7UJeepGuIPIi78HgQo_c-97" value="&lt;span style=&quot;color: rgb(0, 0, 0); font-family: Helvetica; font-style: normal; font-variant-ligatures: normal; font-variant-caps: normal; font-weight: 400; letter-spacing: normal; orphans: 2; text-align: center; text-indent: 0px; text-transform: none; widows: 2; word-spacing: 0px; -webkit-text-stroke-width: 0px; white-space: nowrap; background-color: rgb(251, 251, 251); text-decoration-thickness: initial; text-decoration-style: initial; text-decoration-color: initial; float: none; display: inline !important;&quot;&gt;&lt;font&gt;&amp;lt;&amp;lt;include&amp;gt;&amp;gt;&lt;/font&gt;&lt;/span&gt;" style="text;whiteSpace=wrap;html=1;rotation=0;fontSize=9;" vertex="1" parent="1">
          <mxGeometry x="865" y="306.71" width="70" height="20" as="geometry" />
        </mxCell>
        <mxCell id="7UJeepGuIPIi78HgQo_c-98" value="&lt;span style=&quot;color: rgb(0, 0, 0); font-family: Helvetica; font-style: normal; font-variant-ligatures: normal; font-variant-caps: normal; font-weight: 400; letter-spacing: normal; orphans: 2; text-align: center; text-indent: 0px; text-transform: none; widows: 2; word-spacing: 0px; -webkit-text-stroke-width: 0px; white-space: nowrap; background-color: rgb(251, 251, 251); text-decoration-thickness: initial; text-decoration-style: initial; text-decoration-color: initial; float: none; display: inline !important;&quot;&gt;&lt;font&gt;&amp;lt;&amp;lt;include&amp;gt;&amp;gt;&lt;/font&gt;&lt;/span&gt;" style="text;whiteSpace=wrap;html=1;rotation=0;fontSize=9;" vertex="1" parent="1">
          <mxGeometry x="775" y="360" width="70" height="20" as="geometry" />
        </mxCell>
        <mxCell id="7UJeepGuIPIi78HgQo_c-99" value="&lt;span style=&quot;color: rgb(0, 0, 0); font-family: Helvetica; font-style: normal; font-variant-ligatures: normal; font-variant-caps: normal; font-weight: 400; letter-spacing: normal; orphans: 2; text-align: center; text-indent: 0px; text-transform: none; widows: 2; word-spacing: 0px; -webkit-text-stroke-width: 0px; white-space: nowrap; background-color: rgb(251, 251, 251); text-decoration-thickness: initial; text-decoration-style: initial; text-decoration-color: initial; float: none; display: inline !important;&quot;&gt;&lt;font&gt;&amp;lt;&amp;lt;include&amp;gt;&amp;gt;&lt;/font&gt;&lt;/span&gt;" style="text;whiteSpace=wrap;html=1;rotation=0;fontSize=9;" vertex="1" parent="1">
          <mxGeometry x="740" y="410" width="70" height="20" as="geometry" />
        </mxCell>
        <mxCell id="7UJeepGuIPIi78HgQo_c-100" value="&lt;span style=&quot;color: rgb(0, 0, 0); font-family: Helvetica; font-style: normal; font-variant-ligatures: normal; font-variant-caps: normal; font-weight: 400; letter-spacing: normal; orphans: 2; text-align: center; text-indent: 0px; text-transform: none; widows: 2; word-spacing: 0px; -webkit-text-stroke-width: 0px; white-space: nowrap; background-color: rgb(251, 251, 251); text-decoration-thickness: initial; text-decoration-style: initial; text-decoration-color: initial; float: none; display: inline !important;&quot;&gt;&lt;font&gt;&amp;lt;&amp;lt;include&amp;gt;&amp;gt;&lt;/font&gt;&lt;/span&gt;" style="text;whiteSpace=wrap;html=1;rotation=0;fontSize=9;" vertex="1" parent="1">
          <mxGeometry x="915" y="395" width="70" height="20" as="geometry" />
        </mxCell>
        <mxCell id="7UJeepGuIPIi78HgQo_c-106" style="edgeStyle=none;rounded=0;orthogonalLoop=1;jettySize=auto;html=1;exitX=0.5;exitY=1;exitDx=0;exitDy=0;" edge="1" parent="1" source="7UJeepGuIPIi78HgQo_c-99" target="7UJeepGuIPIi78HgQo_c-99">
          <mxGeometry relative="1" as="geometry" />
        </mxCell>
        <mxCell id="7UJeepGuIPIi78HgQo_c-108" value="" style="swimlane;startSize=0;" vertex="1" parent="1">
          <mxGeometry x="90" y="60" width="980" height="530" as="geometry" />
        </mxCell>
        <mxCell id="7UJeepGuIPIi78HgQo_c-112" value="" style="rounded=0;whiteSpace=wrap;html=1;" vertex="1" parent="7UJeepGuIPIi78HgQo_c-108">
          <mxGeometry width="230" height="30" as="geometry" />
        </mxCell>
        <mxCell id="7UJeepGuIPIi78HgQo_c-111" value="&lt;b&gt;&lt;u&gt;Leaderboard and Matchmaking System&lt;/u&gt;&lt;/b&gt;" style="text;html=1;align=center;verticalAlign=middle;resizable=0;points=[];autosize=1;strokeColor=none;fillColor=none;" vertex="1" parent="7UJeepGuIPIi78HgQo_c-108">
          <mxGeometry x="-10" width="250" height="30" as="geometry" />
        </mxCell>
        <mxCell id="7UJeepGuIPIi78HgQo_c-11" value="Back Button (Universal)" style="ellipse;whiteSpace=wrap;html=1;" vertex="1" parent="7UJeepGuIPIi78HgQo_c-108">
          <mxGeometry x="20" y="450" width="80" height="50" as="geometry" />
        </mxCell>
      </root>
    </mxGraphModel>
  </diagram>
</mxfile>
